<svg viewBox="0 0 1200 500" xmlns="http://www.w3.org/2000/svg">
  <!-- Gradient backgrounds with vibrant colors -->
  <defs>
    <linearGradient id="skyGradient" x1="0%" y1="0%" x2="100%" y2="0%">
      <stop offset="0%" stop-color="#00FFFF" />
      <stop offset="50%" stop-color="#00BFFF" />
      <stop offset="100%" stop-color="#FF1493" />
    </linearGradient>
    <linearGradient id="groundGradient" x1="0%" y1="0%" x2="100%" y2="0%">
      <stop offset="0%" stop-color="#00FF00" />
      <stop offset="50%" stop-color="#ADFF2F" />
      <stop offset="100%" stop-color="#FF8C00" />
    </linearGradient>
    <linearGradient id="overlayGradient" x1="0%" y1="0%" x2="0%" y2="100%">
      <stop offset="0%" stop-color="white" stop-opacity="0.5" />
      <stop offset="20%" stop-color="white" stop-opacity="0" />
      <stop offset="80%" stop-color="white" stop-opacity="0" />
      <stop offset="100%" stop-color="white" stop-opacity="0.5" />
    </linearGradient>
    <filter id="softBlur" x="-10%" y="-10%" width="120%" height="120%">
      <feGaussianBlur in="SourceGraphic" stdDeviation="5" />
    </filter>
  </defs>
  
  <!-- Sky background with vibrant gradient -->
  <rect x="0" y="0" width="1200" height="300" fill="url(#skyGradient)" />
  
  <!-- Ground with vivid colors -->
  <rect x="0" y="300" width="1200" height="200" fill="url(#groundGradient)" />
  
  <!-- Clouds with more contrast -->
  <g fill="white" opacity="0.9">
    <ellipse cx="120" cy="80" rx="50" ry="30" />
    <ellipse cx="160" cy="90" rx="40" ry="25" />
    <ellipse cx="90" cy="90" rx="45" ry="20" />
    
    <ellipse cx="320" cy="60" rx="60" ry="25" />
    <ellipse cx="370" cy="70" rx="50" ry="20" />
    
    <ellipse cx="820" cy="100" rx="70" ry="30" />
    <ellipse cx="880" cy="110" rx="60" ry="25" />
  </g>
  
  <!-- Birds in bright color -->
  <path d="M500,80 C510,70 520,80 530,70 C520,80 530,90 520,90 Z" fill="#FF00FF" />
  <path d="M550,110 C560,100 570,110 580,100 C570,110 580,120 570,120 Z" fill="#FF00FF" />
  <path d="M530,70 C540,60 550,70 560,60 C550,70 560,80 550,80 Z" fill="#FF00FF" />

  <!-- 1. Cozy House (Left) with vibrant colors -->
  <g transform="translate(150, 280)">
    <!-- House base -->
    <rect x="0" y="0" width="120" height="100" fill="#FF4500" stroke="#FF0000" stroke-width="3" />
    
    <!-- Roof -->
    <polygon points="0,0 60,-50 120,0" fill="#8B008B" stroke="#FF00FF" stroke-width="3" />
    
    <!-- Door -->
    <rect x="45" y="50" width="30" height="50" fill="#0000CD" />
    <circle cx="65" cy="75" r="3" fill="#FFD700" />
    
    <!-- Windows -->
    <rect x="15" y="30" width="25" height="25" fill="#00FFFF" stroke="#0000FF" stroke-width="3" />
    <rect x="80" y="30" width="25" height="25" fill="#00FFFF" stroke="#0000FF" stroke-width="3" />
    <line x1="15" y1="42.5" x2="40" y2="42.5" stroke="#0000FF" stroke-width="3" />
    <line x1="27.5" y1="30" x2="27.5" y2="55" stroke="#0000FF" stroke-width="3" />
    <line x1="80" y1="42.5" x2="105" y2="42.5" stroke="#0000FF" stroke-width="3" />
    <line x1="92.5" y1="30" x2="92.5" y2="55" stroke="#0000FF" stroke-width="3" />
    
    <!-- Chimney -->
    <rect x="80" y="-40" width="15" height="30" fill="#FF6347" stroke="#FF0000" stroke-width="2" />
    <rect x="77" y="-45" width="21" height="5" fill="#8B0000" />
    
    <!-- Garden -->
    <rect x="-30" y="100" width="180" height="20" fill="#32CD32" />
    <path d="M-20,105 Q-10,95 0,105 Q10,115 20,105 Q30,95 40,105 Q50,115 60,105 Q70,95 80,105 Q90,115 100,105 Q110,95 120,105 Q130,115 140,105" fill="none" stroke="#FF1493" stroke-width="3" />
    <path d="M-25,115 Q-15,105 -5,115 Q5,125 15,115 Q25,105 35,115 Q45,125 55,115 Q65,105 75,115 Q85,125 95,115 Q105,105 115,115 Q125,125 135,115" fill="none" stroke="#FFA500" stroke-width="3" />
    
    <!-- Picket fence -->
    <g stroke="#FFFFFF" stroke-width="3" fill="#FFFACD">
      <line x1="-30" y1="100" x2="-30" y2="120" />
      <line x1="-20" y1="100" x2="-20" y2="120" />
      <line x1="-10" y1="100" x2="-10" y2="120" />
      <line x1="0" y1="100" x2="0" y2="120" />
      <line x1="10" y1="100" x2="10" y2="120" />
      <line x1="20" y1="100" x2="20" y2="120" />
      <line x1="30" y1="100" x2="30" y2="120" />
      <line x1="40" y1="100" x2="40" y2="120" />
      <line x1="50" y1="100" x2="50" y2="120" />
      <line x1="60" y1="100" x2="60" y2="120" />
      <line x1="70" y1="100" x2="70" y2="120" />
      <line x1="80" y1="100" x2="80" y2="120" />
      <line x1="90" y1="100" x2="90" y2="120" />
      <line x1="100" y1="100" x2="100" y2="120" />
      <line x1="110" y1="100" x2="110" y2="120" />
      <line x1="120" y1="100" x2="120" y2="120" />
      <line x1="130" y1="100" x2="130" y2="120" />
      <line x1="140" y1="100" x2="140" y2="120" />
      <line x1="150" y1="100" x2="150" y2="120" />
      <line x1="-30" y1="110" x2="150" y2="110" />
    </g>
    
    <!-- House warm glow effect -->
    <rect x="15" y="30" width="25" height="25" fill="#FFFF00" opacity="0.5" />
    <rect x="80" y="30" width="25" height="25" fill="#FFFF00" opacity="0.5" />
    <rect x="45" y="50" width="30" height="50" fill="#FFFF00" opacity="0.3" />
  </g>

  <!-- 2. Farm Field (Center-left) with vibrant colors -->
  <g transform="translate(400, 300)">
    <!-- Base field -->
    <rect x="0" y="0" width="250" height="200" fill="#7CFC00" />
    
    <!-- Crop rows -->
    <g stroke="#006400" stroke-width="3">
      <line x1="0" y1="20" x2="250" y2="20" opacity="0.8" />
      <line x1="0" y1="40" x2="250" y2="40" opacity="0.8" />
      <line x1="0" y1="60" x2="250" y2="60" opacity="0.8" />
      <line x1="0" y1="80" x2="250" y2="80" opacity="0.8" />
      <line x1="0" y1="100" x2="250" y2="100" opacity="0.8" />
      <line x1="0" y1="120" x2="250" y2="120" opacity="0.8" />
      <line x1="0" y1="140" x2="250" y2="140" opacity="0.8" />
      <line x1="0" y1="160" x2="250" y2="160" opacity="0.8" />
      <line x1="0" y1="180" x2="250" y2="180" opacity="0.8" />
    </g>
    
    <!-- Crop plants with vibrant green -->
    <g fill="#00FF00">
      <g transform="translate(20, 10)">
        <circle cx="0" cy="0" r="5" />
        <circle cx="0" cy="20" r="5" />
        <circle cx="0" cy="40" r="5" />
        <circle cx="0" cy="60" r="5" />
        <circle cx="0" cy="80" r="5" />
        <circle cx="0" cy="100" r="5" />
        <circle cx="0" cy="120" r="5" />
        <circle cx="0" cy="140" r="5" />
        <circle cx="0" cy="160" r="5" />
      </g>
      <g transform="translate(60, 10)">
        <circle cx="0" cy="0" r="5" />
        <circle cx="0" cy="20" r="5" />
        <circle cx="0" cy="40" r="5" />
        <circle cx="0" cy="60" r="5" />
        <circle cx="0" cy="80" r="5" />
        <circle cx="0" cy="100" r="5" />
        <circle cx="0" cy="120" r="5" />
        <circle cx="0" cy="140" r="5" />
        <circle cx="0" cy="160" r="5" />
      </g>
      <g transform="translate(100, 10)">
        <circle cx="0" cy="0" r="5" />
        <circle cx="0" cy="20" r="5" />
        <circle cx="0" cy="40" r="5" />
        <circle cx="0" cy="60" r="5" />
        <circle cx="0" cy="80" r="5" />
        <circle cx="0" cy="100" r="5" />
        <circle cx="0" cy="120" r="5" />
        <circle cx="0" cy="140" r="5" />
        <circle cx="0" cy="160" r="5" />
      </g>
      <g transform="translate(140, 10)">
        <circle cx="0" cy="0" r="5" />
        <circle cx="0" cy="20" r="5" />
        <circle cx="0" cy="40" r="5" />
        <circle cx="0" cy="60" r="5" />
        <circle cx="0" cy="80" r="5" />
        <circle cx="0" cy="100" r="5" />
        <circle cx="0" cy="120" r="5" />
        <circle cx="0" cy="140" r="5" />
        <circle cx="0" cy="160" r="5" />
      </g>
      <g transform="translate(180, 10)">
        <circle cx="0" cy="0" r="5" />
        <circle cx="0" cy="20" r="5" />
        <circle cx="0" cy="40" r="5" />
        <circle cx="0" cy="60" r="5" />
        <circle cx="0" cy="80" r="5" />
        <circle cx="0" cy="100" r="5" />
        <circle cx="0" cy="120" r="5" />
        <circle cx="0" cy="140" r="5" />
        <circle cx="0" cy="160" r="5" />
      </g>
      <g transform="translate(220, 10)">
        <circle cx="0" cy="0" r="5" />
        <circle cx="0" cy="20" r="5" />
        <circle cx="0" cy="40" r="5" />
        <circle cx="0" cy="60" r="5" />
        <circle cx="0" cy="80" r="5" />
        <circle cx="0" cy="100" r="5" />
        <circle cx="0" cy="120" r="5" />
        <circle cx="0" cy="140" r="5" />
        <circle cx="0" cy="160" r="5" />
      </g>
    </g>
    
    <!-- Tractor in bright red -->
    <g transform="translate(180, 70) scale(0.7)">
      <rect x="0" y="0" width="40" height="25" fill="#FF0000" stroke="#000000" stroke-width="2" />
      <rect x="40" y="5" width="15" height="20" fill="#FF0000" stroke="#000000" stroke-width="2" />
      <circle cx="10" cy="25" r="8" fill="#000000" stroke="#222222" stroke-width="2" />
      <circle cx="45" cy="25" r="12" fill="#000000" stroke="#222222" stroke-width="2" />
      <rect x="5" y="-10" width="25" height="10" fill="#FF0000" stroke="#000000" stroke-width="2" />
    </g>
  </g>

  <!-- 3. SUV/Vehicle (Center-right) with vibrant colors -->
  <g transform="translate(700, 340)">
    <!-- Road -->
    <rect x="-50" y="30" width="300" height="80" fill="#333333" />
    <rect x="-50" y="69" width="300" height="3" fill="#FFFFFF" stroke="none" />
    <rect x="-50" y="49" width="300" height="3" fill="#FFFFFF" stroke="none" stroke-dasharray="10,10" />
    <rect x="-50" y="89" width="300" height="3" fill="#FFFFFF" stroke="none" stroke-dasharray="10,10" />
    
    <!-- Car body - SUV with perspective -->
    <g transform="skewX(-10)">
      <!-- Main body -->
      <rect x="30" y="-20" width="140" height="40" rx="5" fill="#FF00FF" stroke="#000000" stroke-width="2" />
      
      <!-- Lower body -->
      <rect x="20" y="20" width="160" height="30" rx="3" fill="#FF00FF" stroke="#000000" stroke-width="2" />
      
      <!-- Windows with reflection -->
      <rect x="45" y="-15" width="30" height="25" fill="#00FFFF" opacity="0.8" stroke="#000000" stroke-width="2" />
      <rect x="85" y="-15" width="30" height="25" fill="#00FFFF" opacity="0.8" stroke="#000000" stroke-width="2" />
      <rect x="125" y="-15" width="30" height="25" fill="#00FFFF" opacity="0.8" stroke="#000000" stroke-width="2" />
      
      <!-- Window reflections -->
      <polygon points="45,-15 75,-15 65,-5 55,-5" fill="white" opacity="0.6" />
      <polygon points="85,-15 115,-15 105,-5 95,-5" fill="white" opacity="0.6" />
      <polygon points="125,-15 155,-15 145,-5 135,-5" fill="white" opacity="0.6" />
      
      <!-- Wheels -->
      <circle cx="50" cy="50" r="15" fill="#000000" />
      <circle cx="50" cy="50" r="8" fill="#FFFF00" />
      <circle cx="150" cy="50" r="15" fill="#000000" />
      <circle cx="150" cy="50" r="8" fill="#FFFF00" />
      
      <!-- Luggage on top -->
      <rect x="60" y="-30" width="80" height="10" rx="2" fill="#00FF00" stroke="#000000" stroke-width="2" />
      <rect x="65" y="-35" width="70" height="5" rx="2" fill="#008000" stroke="#000000" stroke-width="2" />
      
      <!-- Details -->
      <rect x="155" y="5" width="20" height="10" fill="#FF0000" /> <!-- Tail light -->
      <rect x="25" y="5" width="10" height="10" fill="#FFFF00" /> <!-- Headlight -->
      <rect x="20" y="30" width="160" height="3" fill="#000000" /> <!-- Trim -->
    </g>
  </g>

  <!-- 4. Restaurant Setting (Far right) with vibrant colors -->
  <g transform="translate(950, 330)">
    <!-- Table -->
    <ellipse cx="100" cy="60" rx="80" ry="30" fill="#8B4513" stroke="#800000" stroke-width="3" />
    
    <!-- Tablecloth -->
    <ellipse cx="100" cy="58" rx="75" ry="27" fill="#FF69B4" stroke="#FF1493" stroke-width="2" />
    
    <!-- Wine glasses -->
    <g transform="translate(60, 40)">
      <path d="M0,0 L-5,15 L5,15 Z" fill="#00FFFF" opacity="0.8" stroke="#0000FF" stroke-width="1.5" />
      <rect x="-1" y="15" width="2" height="10" fill="#00FFFF" stroke="#0000FF" stroke-width="1" />
      <ellipse cx="0" cy="25" rx="5" ry="1" fill="#00FFFF" stroke="#0000FF" stroke-width="1" />
    </g>
    <g transform="translate(140, 40)">
      <path d="M0,0 L-5,15 L5,15 Z" fill="#00FFFF" opacity="0.8" stroke="#0000FF" stroke-width="1.5" />
      <rect x="-1" y="15" width="2" height="10" fill="#00FFFF" stroke="#0000FF" stroke-width="1" />
      <ellipse cx="0" cy="25" rx="5" ry="1" fill="#00FFFF" stroke="#0000FF" stroke-width="1" />
    </g>
    
    <!-- Wine bottle -->
    <g transform="translate(100, 40)">
      <rect x="-5" y="-15" width="10" height="25" rx="2" fill="#8B008B" />
      <rect x="-3" y="-20" width="6" height="5" rx="1" fill="#FF00FF" />
    </g>
    
    <!-- Plates -->
    <circle cx="60" cy="60" r="15" fill="#FFFFFF" stroke="#FFC0CB" stroke-width="2" />
    <circle cx="60" cy="60" r="12" fill="none" stroke="#FFC0CB" stroke-width="1" />
    <circle cx="140" cy="60" r="15" fill="#FFFFFF" stroke="#FFC0CB" stroke-width="2" />
    <circle cx="140" cy="60" r="12" fill="none" stroke="#FFC0CB" stroke-width="1" />
    
    <!-- Utensils -->
    <g stroke="#FFD700" stroke-width="2" fill="none">
      <path d="M40,55 L50,60 L40,65" />
      <path d="M35,55 L45,60 L35,65" />
      <line x1="80" y1="55" x2="80" y2="65" />
      <line x1="160" y1="55" x2="160" y2="65" />
      <line x1="120" y1="55" x2="130" y2="65" />
      <line x1="120" y1="65" x2="130" y2="55" />
    </g>
    
    <!-- Candle -->
    <g transform="translate(100, 30)">
      <rect x="-3" y="0" width="6" height="10" rx="1" fill="#FFA500" />
      <ellipse cx="0" cy="0" rx="3" ry="1" fill="#FFFF00" />
      <ellipse cx="0" cy="-4" rx="1" ry="3" fill="#FFFFFF" opacity="0.9" />
    </g>
    
    <!-- Hanging lights in bright colors -->
    <g fill="#FFFF00" opacity="0.9">
      <circle cx="60" cy="-30" r="7" />
      <circle cx="100" cy="-40" r="7" />
      <circle cx="140" cy="-30" r="7" />
      <line x1="60" y1="-30" x2="60" y2="-5" stroke="#FF0000" stroke-width="1" />
      <line x1="100" y1="-40" x2="100" y2="-5" stroke="#FF0000" stroke-width="1" />
      <line x1="140" y1="-30" x2="140" y2="-5" stroke="#FF0000" stroke-width="1" />
    </g>
    
    <!-- Table food in bright colors -->
    <path d="M60,60 C55,55 65,55 60,60" fill="#00FF00" />
    <path d="M140,60 C135,55 145,55 140,60" fill="#FF0000" />
    
    <!-- Sunset warm glow -->
    <rect x="0" y="-50" width="200" height="50" fill="#FF00FF" opacity="0.4" />
  </g>
  
  <!-- White gradient overlays for text -->
  <rect x="0" y="0" width="1200" height="500" fill="url(#overlayGradient)" />
  
  <!-- Scene blending with Gaussian blur -->
  <g filter="url(#softBlur)" opacity="0.15">
    <rect x="300" y="0" width="50" height="500" fill="white" />
    <rect x="650" y="0" width="50" height="500" fill="white" />
    <rect x="950" y="0" width="50" height="500" fill="white" />
  </g>
</svg>
