<svg xmlns="http://www.w3.org/2000/svg" viewBox="0 0 400 300">
  <!-- Background -->
  <rect width="400" height="300" fill="#ffffff" rx="10" ry="10" />
  
  <!-- Nest Circle -->
  <circle cx="200" cy="130" r="70" fill="#f8f8f8" stroke="#1abc9c" stroke-width="3" />
  
  <!-- Nest Structure -->
  <path d="M160,100 C180,85 220,85 240,100 C250,110 230,130 200,130 C170,130 150,110 160,100 Z" fill="#1abc9c" />
  <path d="M170,120 C185,110 215,110 230,120 C238,127 225,140 200,140 C175,140 162,127 170,120 Z" fill="#16a085" />
  
  <!-- House Icon -->
  <path d="M180,110 L180,130 L195,130 L195,115 L205,115 L205,130 L220,130 L220,110 L200,95 Z" fill="#3498db" />
  
  <!-- Farm Icon -->
  <rect x="150" y="145" width="20" height="15" fill="#8e44ad" />
  <path d="M150,145 L160,135 L170,145" fill="#8e44ad" />
  <rect x="155" y="150" width="5" height="10" fill="#f1c40f" />
  <rect x="162" y="150" width="5" height="10" fill="#f1c40f" />
  
  <!-- Car Icon -->
  <rect x="180" y="145" width="25" height="12" rx="3" ry="3" fill="#e74c3c" />
  <circle cx="185" cy="157" r="3" fill="#34495e" />
  <circle cx="200" cy="157" r="3" fill="#34495e" />
  
  <!-- Restaurant Table Icon -->
  <rect x="215" y="145" width="15" height="15" fill="#2980b9" />
  <rect x="219" y="150" width="7" height="2" fill="#ffffff" />
  <rect x="223" y="143" width="2" height="2" fill="#ffffff" />
  <rect x="220" y="143" width="2" height="2" fill="#ffffff" />
  
  <!-- Company Name -->
  <text x="200" y="200" font-family="Arial, sans-serif" font-size="28" font-weight="bold" text-anchor="middle" fill="#2c3e50">RentNest</text>
  
  <!-- Tagline -->
  <text x="200" y="220" font-family="Arial, sans-serif" font-size="10" text-anchor="middle" fill="#7f8c8d">Home • Farm • Vehicle • Restaurant</text>
  
  <!-- Slogan -->
  <text x="200" y="240" font-family="Arial, sans-serif" font-size="12" font-style="italic" text-anchor="middle" fill="#2c3e50">Your One-Stop Booking Platform</text>
</svg>
